<?xml version="1.0" encoding="utf-8"?>
<!-- Generator: Adobe Illustrator 27.5.0, SVG Export Plug-In . SVG Version: 6.00 Build 0)  -->
<svg version="1.1" xmlns="http://www.w3.org/2000/svg" xmlns:xlink="http://www.w3.org/1999/xlink" x="0px" y="0px"
	 viewBox="0 0 2200 2200" style="enable-background:new 0 0 2200 2200;" xml:space="preserve">
<g id="background">
	<rect x="0" style="fill:#FFFFFF;" width="2200" height="2200"/>
</g>
<g id="Objects">
	<g>
		<g>
			<path style="fill:#C47743;" d="M1680.791,570.476v166.382H464.526c-24.507,0-47.063-8.374-64.958-22.411
				c-3.351-2.629-6.531-5.447-9.539-8.455c-19.069-19.06-30.866-45.41-30.866-74.506c0-58.174,47.18-105.354,105.363-105.354
				h1171.93C1660.945,526.132,1680.791,545.987,1680.791,570.476z"/>
			<path style="fill:#AA693C;" d="M1680.791,714.447v22.411H464.526c-24.507,0-47.063-8.374-64.958-22.411
				c-3.351-2.629-6.531-5.447-9.539-8.455c-12.168-12.159-21.373-27.289-26.431-44.208c0.535,0.759,1.077,1.512,1.627,2.26
				c23.507,31.967,61.19,50.404,100.87,50.404H1680.791z"/>
			<path style="fill:#E28947;" d="M1797.482,781.193v969.225c0,24.48-19.846,44.335-44.335,44.335H465.574
				c-58.761,0-106.411-47.641-106.411-106.411V631.486c0,29.096,11.797,55.446,30.866,74.506
				c19.06,19.069,45.401,30.866,74.497,30.866h1288.621C1777.636,736.859,1797.482,756.704,1797.482,781.193z"/>
			<path style="fill:#7BC97B;" d="M498.3,736.855l162.356-210.72l235.54-305.718c8.726-11.324,24.971-13.425,36.295-4.709
				l180.942,139.416l-383.609,381.73H498.3z"/>
			<path style="fill:#B3E08C;" d="M1062.912,392.513L690.997,709.885l-31.607,26.973h-92.482l9.105-11.824l153.248-198.902
				l145.516-188.866c29.349,22.61,71.471,17.154,94.09-12.195c0.813-1.066,1.599-2.132,2.331-3.225l73.295,56.475L1062.912,392.513z
				"/>
			<polygon style="fill:#70BA70;" points="1113.434,355.125 784.292,682.65 690.997,709.885 1062.912,392.513 1044.493,378.322 
				1095.016,340.934 			"/>
			<polygon style="fill:#A0C979;" points="1062.912,392.513 690.997,709.885 598.597,736.859 560.043,736.859 576.014,725.034 
				587.712,716.38 590.322,714.447 1044.493,378.322 			"/>
			<path style="fill:#7BC97B;" d="M1396.905,494.344L618.181,721.656l51.977-38.472l539.065-398.942
				c11.481-8.5,27.696-6.079,36.187,5.402l137.323,185.551L1396.905,494.344z"/>
			<path style="fill:#B3E08C;" d="M1335.064,512.393l-566.02,165.226l51.986-38.472l335.61-248.377
				c22.032,29.782,64.036,36.06,93.828,14.01c1.066-0.786,2.114-1.608,3.125-2.457l67.297,90.919L1335.064,512.393z"/>
			<path style="fill:#7BC97B;" d="M1592.272,736.855l-61.496-210.72l-11.812-40.454c-4.008-13.718-18.374-21.592-32.092-17.593
				l-198.864,58.047l-721.907,210.72H1592.272z"/>
			<polygon style="fill:#70BA70;" points="1396.905,494.344 1335.064,512.393 1320.891,493.242 1382.732,475.194 			"/>
			<polygon style="fill:#A0C979;" points="1335.064,512.393 769.044,677.619 821.03,639.146 1257.333,511.797 1320.891,493.242 			
				"/>
			<path style="fill:#B3E08C;" d="M1529.304,736.855l-41.624-142.617c-1.241,0.443-2.51,0.851-3.795,1.224
				c-35.568,10.384-72.812-10.038-83.187-45.597l-640.636,186.99H1529.304z"/>
			<polygon style="fill:#70BA70;" points="836.847,714.447 760.065,736.859 566.104,736.859 642.877,714.447 			"/>
			<polygon style="fill:#70BA70;" points="1592.275,736.859 1529.305,736.859 1522.765,714.447 1585.735,714.447 			"/>
			<polygon style="fill:#A0C979;" points="1529.305,736.859 760.065,736.859 836.847,714.447 1522.765,714.447 			"/>
			<polygon style="fill:#A0C979;" points="642.877,714.447 566.104,736.859 560.043,736.859 584.171,714.447 			"/>
			<polygon style="fill:#70BA70;" points="821.03,639.146 769.044,677.619 618.181,721.656 670.158,683.183 			"/>
			<polygon style="fill:#70BA70;" points="584.171,714.447 566.908,736.859 498.301,736.859 515.564,714.447 			"/>
			<g>
				<path style="fill:#AA693C;" d="M497.081,847.683h-51.138c-9.978,0-18.066-8.088-18.066-18.066s8.088-18.066,18.066-18.066
					h51.138c9.978,0,18.066,8.088,18.066,18.066S507.059,847.683,497.081,847.683z"/>
				<path style="fill:#AA693C;" d="M1653.245,1731.343h-44.465c-9.978,0-18.066-8.088-18.066-18.066
					c0-9.978,8.089-18.066,18.066-18.066h44.465c9.978,0,18.066,8.088,18.066,18.066
					C1671.311,1723.255,1663.223,1731.343,1653.245,1731.343z M1537.636,1731.343h-44.465c-9.978,0-18.066-8.088-18.066-18.066
					c0-9.978,8.088-18.066,18.066-18.066h44.465c9.978,0,18.066,8.088,18.066,18.066
					C1555.702,1723.255,1547.614,1731.343,1537.636,1731.343z M1422.028,1731.343h-44.465c-9.978,0-18.066-8.088-18.066-18.066
					c0-9.978,8.088-18.066,18.066-18.066h44.465c9.978,0,18.066,8.088,18.066,18.066
					C1440.094,1723.255,1432.006,1731.343,1422.028,1731.343z M1306.419,1731.343h-44.465c-9.978,0-18.066-8.088-18.066-18.066
					c0-9.978,8.089-18.066,18.066-18.066h44.465c9.978,0,18.066,8.088,18.066,18.066
					C1324.485,1723.255,1316.397,1731.343,1306.419,1731.343z M1190.811,1731.343h-44.465c-9.978,0-18.066-8.088-18.066-18.066
					c0-9.978,8.088-18.066,18.066-18.066h44.465c9.978,0,18.066,8.088,18.066,18.066
					C1208.877,1723.255,1200.789,1731.343,1190.811,1731.343z M1075.202,1731.343h-44.465c-9.978,0-18.066-8.088-18.066-18.066
					c0-9.978,8.088-18.066,18.066-18.066h44.465c9.978,0,18.066,8.088,18.066,18.066
					C1093.268,1723.255,1085.18,1731.343,1075.202,1731.343z M959.594,1731.343h-44.465c-9.978,0-18.066-8.088-18.066-18.066
					c0-9.978,8.088-18.066,18.066-18.066h44.465c9.978,0,18.066,8.088,18.066,18.066
					C977.66,1723.255,969.571,1731.343,959.594,1731.343z M843.984,1731.343H799.52c-9.978,0-18.066-8.088-18.066-18.066
					c0-9.978,8.088-18.066,18.066-18.066h44.465c9.978,0,18.066,8.088,18.066,18.066
					C862.051,1723.255,853.962,1731.343,843.984,1731.343z M728.376,1731.343h-44.465c-9.978,0-18.066-8.088-18.066-18.066
					c0-9.978,8.088-18.066,18.066-18.066h44.465c9.978,0,18.066,8.088,18.066,18.066
					C746.443,1723.255,738.354,1731.343,728.376,1731.343z M612.768,1731.343h-44.466c-9.978,0-18.066-8.088-18.066-18.066
					c0-9.978,8.088-18.066,18.066-18.066h44.466c9.978,0,18.066,8.088,18.066,18.066
					C630.835,1723.255,622.746,1731.343,612.768,1731.343z M1718.904,1714.994c-3.525,0-7.086-1.03-10.211-3.175
					c-8.225-5.648-10.314-16.895-4.667-25.12c2.233-3.252,3.413-7.07,3.413-11.045v-21.85c0-9.978,8.088-18.066,18.066-18.066
					c9.978,0,18.066,8.088,18.066,18.066v21.85c0,11.308-3.375,22.2-9.759,31.498
					C1730.311,1712.253,1724.655,1714.994,1718.904,1714.994z M1725.506,1600.727c-9.978,0-18.066-8.089-18.066-18.066v-44.465
					c0-9.978,8.088-18.066,18.066-18.066c9.978,0,18.066,8.089,18.066,18.066v44.465
					C1743.572,1592.639,1735.484,1600.727,1725.506,1600.727z M1725.506,1485.119c-9.978,0-18.066-8.088-18.066-18.066v-44.465
					c0-9.978,8.088-18.066,18.066-18.066c9.978,0,18.066,8.088,18.066,18.066v44.465
					C1743.572,1477.031,1735.484,1485.119,1725.506,1485.119z M1725.506,1369.51c-9.978,0-18.066-8.088-18.066-18.066v-44.465
					c0-9.978,8.088-18.066,18.066-18.066c9.978,0,18.066,8.088,18.066,18.066v44.465
					C1743.572,1361.422,1735.484,1369.51,1725.506,1369.51z M1725.506,1253.902c-9.978,0-18.066-8.089-18.066-18.066v-44.465
					c0-9.978,8.088-18.066,18.066-18.066c9.978,0,18.066,8.088,18.066,18.066v44.465
					C1743.572,1245.813,1735.484,1253.902,1725.506,1253.902z M1725.506,1138.293c-9.978,0-18.066-8.088-18.066-18.066v-44.465
					c0-9.978,8.088-18.066,18.066-18.066c9.978,0,18.066,8.088,18.066,18.066v44.465
					C1743.572,1130.205,1735.484,1138.293,1725.506,1138.293z M1725.506,1022.685c-9.978,0-18.066-8.088-18.066-18.066v-44.465
					c0-9.978,8.088-18.066,18.066-18.066c9.978,0,18.066,8.088,18.066,18.066v44.465
					C1743.572,1014.596,1735.484,1022.685,1725.506,1022.685z M1725.506,907.076c-9.978,0-18.066-8.088-18.066-18.066v-21.771
					c0-3.988-1.188-7.819-3.436-11.078c-5.666-8.213-3.6-19.465,4.613-25.13c8.213-5.666,19.465-3.601,25.13,4.613
					c6.428,9.319,9.826,20.244,9.826,31.595v21.771C1743.572,898.988,1735.484,907.076,1725.506,907.076z M1653.166,847.683h-44.465
					c-9.978,0-18.066-8.088-18.066-18.066s8.089-18.066,18.066-18.066h44.465c9.978,0,18.066,8.088,18.066,18.066
					S1663.144,847.683,1653.166,847.683z M1537.558,847.683h-44.465c-9.978,0-18.066-8.088-18.066-18.066
					s8.088-18.066,18.066-18.066h44.465c9.978,0,18.066,8.088,18.066,18.066S1547.536,847.683,1537.558,847.683z M1421.95,847.683
					h-44.465c-9.978,0-18.066-8.088-18.066-18.066s8.088-18.066,18.066-18.066h44.465c9.978,0,18.066,8.088,18.066,18.066
					S1431.928,847.683,1421.95,847.683z M1306.341,847.683h-44.465c-9.978,0-18.066-8.088-18.066-18.066s8.089-18.066,18.066-18.066
					h44.465c9.978,0,18.066,8.088,18.066,18.066S1316.319,847.683,1306.341,847.683z M1190.733,847.683h-44.466
					c-9.978,0-18.066-8.088-18.066-18.066s8.088-18.066,18.066-18.066h44.466c9.978,0,18.066,8.088,18.066,18.066
					S1200.711,847.683,1190.733,847.683z M1075.124,847.683h-44.465c-9.978,0-18.066-8.088-18.066-18.066
					s8.088-18.066,18.066-18.066h44.465c9.978,0,18.066,8.088,18.066,18.066S1085.102,847.683,1075.124,847.683z M959.516,847.683
					H915.05c-9.978,0-18.066-8.088-18.066-18.066s8.088-18.066,18.066-18.066h44.466c9.978,0,18.066,8.088,18.066,18.066
					S969.494,847.683,959.516,847.683z M843.907,847.683h-44.465c-9.978,0-18.066-8.088-18.066-18.066s8.088-18.066,18.066-18.066
					h44.465c9.978,0,18.066,8.088,18.066,18.066S853.885,847.683,843.907,847.683z M728.299,847.683h-44.466
					c-9.978,0-18.066-8.088-18.066-18.066s8.088-18.066,18.066-18.066h44.466c9.978,0,18.066,8.088,18.066,18.066
					S738.277,847.683,728.299,847.683z M612.69,847.683h-44.465c-9.978,0-18.066-8.088-18.066-18.066s8.088-18.066,18.066-18.066
					h44.465c9.978,0,18.066,8.088,18.066,18.066S622.668,847.683,612.69,847.683z"/>
				<path style="fill:#AA693C;" d="M497.081,1731.343h-51.138c-9.978,0-18.066-8.088-18.066-18.066
					c0-9.978,8.088-18.066,18.066-18.066h51.138c9.978,0,18.066,8.088,18.066,18.066
					C515.148,1723.255,507.059,1731.343,497.081,1731.343z"/>
			</g>
			<path style="fill:#C47743;" d="M1675.242,1389.359h124.573c22.656,0,41.023-18.366,41.023-41.023v-165.069
				c0-22.656-18.366-41.023-41.023-41.023h-124.573c-68.239,0-123.557,55.318-123.557,123.557v0
				C1551.685,1334.04,1607.003,1389.359,1675.242,1389.359z"/>
			<circle style="fill:#FFBF31;" cx="1677.01" cy="1265.803" r="42.885"/>
		</g>
		<ellipse style="fill:#CEDADD;" cx="1086.445" cy="1960.621" rx="591.245" ry="29.047"/>
	</g>
</g>
</svg>
